# xmcd
# 
# Track frame offsets:
#     150
#     34984
#     52743
#     82296
#     121437
#     143326
#     176102
#     211209
# 
# Disc length: 3211
# 
# Revision: 7
# Processed by: cddbd v1.5.2PL0 Copyright (c) Steve Scherf et al.
# Submitted via: fre:ac v1.0.17
# 
DISCID=6c0c8908
DTITLE=Brahem Anouar - The Astounding Eyes Of Rita
DYEAR=2009
DGENRE=Jazz
TTITLE0=The Lover Of Beirut
TTITLE1=Dance With Waves
TTITLE2=Stopover At Djibouti
TTITLE3=The Astounding Eyes Of Rita
TTITLE4=Al Birwa
TTITLE5=Galilee Mon Amour
TTITLE6=Waking State
TTITLE7=For No Apparent Reason
EXTD=YEAR: 2009
EXTT0=
EXTT1=
EXTT2=
EXTT3=
EXTT4=
EXTT5=
EXTT6=
EXTT7=
PLAYORDER=
